# xmcd
#
# Track frame offsets:
#  150
#  17955
#  39200
#  53163
#  70263
#  81296
#  99986
#  116226
#
# Disc length: 1718 seconds
#
# Revision: 0
# Processed by: cddbd v1.5.1PL2 Copyright (c) Steve Scherf et al.
# Submitted via: Collectorz.com_Music_Collector 6.9
#
DISCID=6306b408
DTITLE=Bike, Alan - Alan Bike
DYEAR=1999
DGENRE=
TTITLE0=Alan in the desert
TTITLE1=Concha madrigal
TTITLE2=Things fallin' apart
TTITLE3=Easy to know
TTITLE4=We cry, we feel dead
TTITLE5=Un lugar amable
TTITLE6=Poor man in paradise
TTITLE7=I wanna go home
EXTD=
EXTT0=
EXTT1=
EXTT2=
EXTT3=
EXTT4=
EXTT5=
EXTT6=
EXTT7=
PLAYORDER=
